<?xml version="1.0" standalone="no"?>
<svg xmlns="http://www.w3.org/2000/svg" width="232.81565815887586" height="66.21565815887583" viewBox="0 0 232.81565815887586 66.21565815887583"><g fill="#a8be9b" color="#a8be9b" transform="translate(0 0) scale(1.2493521)"><svg width="53.0" height="53.0" x="0.0" y="0.0" viewBox="0 0 53 53"><path fill="currentColor" fill-rule="evenodd" d="M47.767 8.544a98.565 98.565 0 0 1-7.287 9.516.982.982 0 0 0-.199-.04h-6.36a1.06 1.06 0 0 0-1.046 1.234l1.052 6.309a81.588 81.588 0 0 1-7.39 7.265l-7.165-2.047a1.06 1.06 0 0 0-1.33 1.227l1.06 5.3c.015.052.035.1.057.147-3.732 2.038-7.847 4.076-10.704 5.455 8.78-12.241 25.257-32.704 41.841-40.024a51.333 51.333 0 0 1-2.529 5.658zM35.172 20.14h3.553a209.062 209.062 0 0 1-2.984 3.418l-.569-3.418zm-14.71 13.157l3.902 1.115a73.381 73.381 0 0 1-3.286 1.974l-.616-3.09zM12.48 23.27c.078.026.159.043.24.049h5.301a1.06 1.06 0 0 0 1.06-1.06v-6.064a82.995 82.995 0 0 1 8.222-6.708c.082.028.17.046.258.052h6.36a1.06 1.06 0 0 0 1.06-1.06V4.889a23.605 23.605 0 0 1 7.33-2.297 88.944 88.944 0 0 1 4.501-.397c-16.24 8.399-31.618 27.561-40.038 39.353.638-4.911 2.184-13.121 5.706-18.277zm4.481-5.034V21.2h-2.82a69.94 69.94 0 0 1 2.82-2.963zm15.9-12.266V7.42h-2.478c.824-.515 1.65-.995 2.477-1.45zm20.098-4.695a1.03 1.03 0 0 0-.025-.588 1.064 1.064 0 0 0-1.366-.621c-.07.026-.142.061-.214.088-1.235-.22-3.765-.28-9.277.328a26.337 26.337 0 0 0-8.552 2.776c-.016.007-.03.017-.048.025-8.375 4.17-17.006 11.952-21.558 17.223-6.182 7.158-7.468 21.974-7.651 24.621C1.86 48.64.395 51.001.158 51.384A1.061 1.061 0 0 0 1.961 52.5l.002-.005c.06-.096 1.516-2.438 4.012-6.059 1.865-.867 13.94-6.53 20.05-10.572C32.772 31.4 47.66 13.07 49.615 9.581a66.012 66.012 0 0 0 3.323-7.684.951.951 0 0 0 .021-.621z"></path></svg></g><path fill="#09675b" fill-rule="nonzero" d="M3.60 27.12L3.60 5.52Q3.60 3.48 3.04 2.50Q2.48 1.52 0.80 1.52L0.80 1.52L0 1.52L0 0.72L10.40 0.72Q14.24 0.72 17.32 2.36Q20.40 4 20.40 8.72L20.40 8.72Q20.40 11.84 18.80 13.52Q17.20 15.20 15.22 15.76Q13.24 16.32 11.60 16.32L11.60 16.32L7.20 16.32L7.20 27.12L3.60 27.12ZM10.20 14.92Q11.48 14.92 12.92 14.26Q14.36 13.60 15.38 12.16Q16.40 10.72 16.40 8.52L16.40 8.52Q16.40 6.32 15.38 4.88Q14.36 3.44 12.92 2.78Q11.48 2.12 10.20 2.12L10.20 2.12Q8.80 2.12 7.20 2.52L7.20 2.52L7.20 14.52Q8.80 14.92 10.20 14.92L10.20 14.92ZM25.68 27.12L25.68 5.52Q25.68 3.48 25.12 2.50Q24.56 1.52 22.88 1.52L22.88 1.52L22.08 1.52L22.08 0.72L25.68 0.72Q27.16 0.72 27.90 1.10Q28.64 1.48 28.96 2.48Q29.28 3.48 29.28 5.52L29.28 5.52L29.28 25.52L43.48 25.52L43.48 27.12L25.68 27.12ZM68.64 27.32Q66.72 27.32 64.84 26.26Q62.96 25.20 61.84 22.12L61.84 22.12L60.84 19.52L49.64 19.52L46.44 27.12L44.64 27.12L55.84 0.72L57.04 0.72L65.84 22.12Q66.84 24.44 67.72 25.30Q68.60 26.16 70.24 26.32L70.24 26.32L70.24 27.12Q69.52 27.32 68.64 27.32L68.64 27.32ZM55.24 6.32L50.24 17.92L60.04 17.92L55.24 6.32ZM92.36 27.52L75.16 6.12L75.16 27.12L73.56 27.12L73.56 5.52Q73.56 3.60 72.74 2.56Q71.92 1.52 69.96 1.52L69.96 1.52L69.56 1.52L69.56 0.72L72.16 0.72Q74.00 0.72 75.28 1.32Q76.56 1.92 77.56 3.12L77.56 3.12L91.56 20.52L91.56 0.72L93.16 0.72L93.16 27.52L92.36 27.52ZM106.80 27.12L106.80 2.32L103.20 2.32Q98.20 2.32 98.20 6.92L98.20 6.92L97.40 6.92L97.40 3.92Q97.40 0.72 100.80 0.72L100.80 0.72L119.40 0.72L119.40 2.32L110.40 2.32L110.40 27.12L106.80 27.12ZM131.16 27.80Q128.96 27.80 126.84 27.20Q124.72 26.60 123.38 25.48Q122.04 24.36 122.04 22.92L122.04 22.92L122.04 18.64L122.76 18.64Q123.44 22.64 125.40 24.42Q127.36 26.20 130.80 26.20L130.80 26.20Q132.96 26.20 134.50 25.12Q136.04 24.04 136.04 22.12L136.04 22.12Q136.04 20.44 135.00 19.20Q133.96 17.96 131.64 16.60L131.64 16.60L126.72 13.68Q124.16 12.16 123.10 10.60Q122.04 9.04 122.04 6.80L122.04 6.80Q122.04 3.72 124.18 1.86Q126.32 0 129.80 0L129.80 0Q131.84 0 133.84 0.58Q135.84 1.16 137.14 2.26Q138.44 3.36 138.44 4.80L138.44 4.80L138.44 9.08L137.72 9.08Q137.04 5.08 135.14 3.34Q133.24 1.60 129.80 1.60L129.80 1.60Q127.96 1.60 126.56 2.72Q125.16 3.84 125.16 5.64L125.16 5.64Q125.16 7.28 126.18 8.36Q127.20 9.44 129.60 10.88L129.60 10.88L134.52 13.80Q137.24 15.44 138.36 16.84Q139.48 18.24 139.48 20.40L139.48 20.40Q139.48 23.76 137.24 25.78Q135.00 27.80 131.16 27.80L131.16 27.80Z" transform="translate(81.216 0) scale(1.087)"></path><path fill="#09675b" fill-rule="nonzero" d="M3.60 27.20L3.60 5.60Q3.60 3.56 3.04 2.58Q2.48 1.60 0.80 1.60L0.80 1.60L0 1.60L0 0.80L10.40 0.80Q14.76 0.80 17.98 2.24Q21.20 3.68 21.20 7.80L21.20 7.80Q21.20 9.68 19.92 11.20Q18.64 12.72 16 13.60L16 13.60Q19.68 14.20 21.14 15.78Q22.60 17.36 22.60 20L22.60 20Q22.60 24.04 19.42 25.62Q16.24 27.20 11.60 27.20L11.60 27.20L3.60 27.20ZM7.20 13.00L11 13.00Q12.64 13.00 14.10 12.38Q15.56 11.76 16.48 10.54Q17.40 9.32 17.40 7.60L17.40 7.60Q17.40 5.80 16.32 4.58Q15.24 3.36 13.58 2.78Q11.92 2.20 10.20 2.20L10.20 2.20Q8.80 2.20 7.20 2.60L7.20 2.60L7.20 13.00ZM11 25.80Q14.64 25.80 16.62 24.36Q18.60 22.92 18.60 20.20L18.60 20.20Q18.60 17.48 16.66 16.04Q14.72 14.60 11 14.60L11 14.60L7.20 14.60L7.20 25.24Q9.12 25.80 11 25.80L11 25.80ZM38.16 27.60Q34.32 27.60 32.08 26.30Q29.84 25 28.90 22.44Q27.96 19.88 27.96 15.80L27.96 15.80L27.96 5.60Q27.96 3.56 27.40 2.58Q26.84 1.60 25.16 1.60L25.16 1.60L24.36 1.60L24.36 0.80L27.96 0.80Q29.44 0.80 30.18 1.18Q30.92 1.56 31.24 2.56Q31.56 3.56 31.56 5.60L31.56 5.60L31.56 17Q31.56 21.44 33.20 23.72Q34.84 26 38.64 26L38.64 26Q41.68 26 43.46 24.92Q45.24 23.84 46 21.64Q46.76 19.44 46.76 15.80L46.76 15.80L46.76 0.80L48.36 0.80L48.36 15.80Q48.36 19.96 47.48 22.50Q46.60 25.04 44.38 26.32Q42.16 27.60 38.16 27.60L38.16 27.60ZM65.64 28Q61.92 28 59.10 26.20Q56.28 24.40 54.76 21.30Q53.24 18.20 53.24 14.40L53.24 14.40Q53.24 10.48 54.90 7.16Q56.56 3.84 59.42 1.92Q62.28 0 65.64 0L65.64 0Q68.84 0 71.26 0.90Q73.68 1.80 74.84 3.20L74.84 3.20Q75.52 4.04 75.68 5.42Q75.84 6.80 75.84 9.20L75.84 9.20L75.04 9.20Q74.28 5.32 72.24 3.46Q70.20 1.60 66.84 1.60L66.84 1.60Q62.52 1.60 59.88 4.64Q57.24 7.68 57.24 14.40L57.24 14.40Q57.24 17.56 58.26 20.28Q59.28 23 61.44 24.70Q63.60 26.40 66.84 26.40L66.84 26.40Q69.76 26.40 71.94 25Q74.12 23.60 75.84 20.80L75.84 20.80L76.64 21.40Q74.80 25 72.10 26.50Q69.40 28 65.64 28L65.64 28ZM102.92 27.60Q101.04 27.60 99.00 26.58Q96.96 25.56 94.32 22.80L94.32 22.80L85.92 14.00L85.92 27.20L82.32 27.20L82.32 5.60Q82.32 3.56 81.76 2.58Q81.20 1.60 79.52 1.60L79.52 1.60L78.72 1.60L78.72 0.80L82.32 0.80Q83.80 0.80 84.54 1.18Q85.28 1.56 85.60 2.56Q85.92 3.56 85.92 5.60L85.92 5.60L85.92 13.40L94.32 5L95.12 4.16Q96.24 3 97.00 2.34Q97.76 1.68 98.80 1.24Q99.84 0.80 101.12 0.80L101.12 0.80L103.12 0.80L103.12 1.80Q101.44 1.80 100.20 2.38Q98.96 2.96 97.32 4.60L97.32 4.60L89.52 12.40L98.72 22Q100.48 23.80 102.28 25.02Q104.08 26.24 105.52 26.44L105.52 26.44L105.52 27.20Q104.32 27.60 102.92 27.60L102.92 27.60ZM109.40 27.20L109.40 5.60Q109.40 3.56 108.84 2.58Q108.28 1.60 106.60 1.60L106.60 1.60L105.80 1.60L105.80 0.80L122.84 0.80Q126.24 0.80 126.24 4L126.24 4L126.24 7L125.44 7Q125.44 2.40 120.44 2.40L120.44 2.40L113.00 2.40L113.00 12.80L123.80 12.80L123.80 14.40L113.00 14.40L113.00 25.60L120.00 25.60Q122.76 25.60 124.32 24.60Q125.88 23.60 126.80 21.20L126.80 21.20L127.60 21.40L126.20 25.20Q125.48 27.20 123.20 27.20L123.20 27.20L109.40 27.20ZM139.00 27.20L139.00 2.40L135.40 2.40Q130.40 2.40 130.40 7L130.40 7L129.60 7L129.60 4Q129.60 0.80 133.00 0.80L133.00 0.80L151.60 0.80L151.60 2.40L142.60 2.40L142.60 27.20L139.00 27.20Z" transform="translate(81.216 38.216) scale(1)"></path></svg>